<?xml version="1.0" encoding="utf-8"?>
<!DOCTYPE svg PUBLIC "-//W3C//DTD SVG 1.0//EN" "http://www.w3.org/TR/2001/REC-SVG-20010904/DTD/svg10.dtd">
<svg version="1.0" xmlns="http://www.w3.org/2000/svg" width="80px" height="20px" viewBox="0 0 80 20" preserveAspectRatio="xMidYMid meet">
 <g fill="#ffffff">
  <path d="M63 19 c0 -0.5 2.6 -2.4 5.8 -4.2 l5.7 -3.3 -19.5 -0.8 c-11 -0.5 -27.1 -0.5 -37 0.1 -9.6 0.5 -17.7 0.7 -17.9 0.5 -2.4 -1.9 22 -3.5 48.7 -3.1 l25.2 0.3 -4.6 -3.9 c-2.5 -2.1 -4.3 -4 -4 -4.3 0.7 -0.7 14.6 8.9 14.6 10.2 0 1.1 -14.3 9.5 -16.2 9.5 -0.4 0 -0.8 -0.4 -0.8 -1z"/>
 </g>
</svg>